<?xml version="1.0" encoding="utf-8" standalone="no"?>
<!DOCTYPE svg PUBLIC "-//W3C//DTD SVG 1.1//EN"
  "http://www.w3.org/Graphics/SVG/1.1/DTD/svg11.dtd">
<svg xmlns:xlink="http://www.w3.org/1999/xlink" width="496.778281pt" height="280.04625pt" viewBox="0 0 496.778281 280.04625" xmlns="http://www.w3.org/2000/svg" version="1.1">
 <metadata>
  <rdf:RDF xmlns:dc="http://purl.org/dc/elements/1.1/" xmlns:cc="http://creativecommons.org/ns#" xmlns:rdf="http://www.w3.org/1999/02/22-rdf-syntax-ns#">
   <cc:Work>
    <dc:type rdf:resource="http://purl.org/dc/dcmitype/StillImage"/>
    <dc:date>2025-06-14T17:26:23.806676</dc:date>
    <dc:format>image/svg+xml</dc:format>
    <dc:creator>
     <cc:Agent>
      <dc:title>Matplotlib v3.10.3, https://matplotlib.org/</dc:title>
     </cc:Agent>
    </dc:creator>
   </cc:Work>
  </rdf:RDF>
 </metadata>
 <defs>
  <style type="text/css">*{stroke-linejoin: round; stroke-linecap: butt}</style>
 </defs>
 <g id="figure_1">
  <g id="patch_1">
   <path d="M 0 280.04625 
L 496.778281 280.04625 
L 496.778281 0 
L 0 0 
z
" style="fill: #ffffff"/>
  </g>
  <g id="axes_1">
   <g id="patch_2">
    <path d="M 39.414063 246.121875 
L 484.049615 246.121875 
L 484.049615 25.789375 
L 39.414063 25.789375 
z
" style="fill: #ffffff"/>
   </g>
   <g id="matplotlib.axis_1">
    <g id="xtick_1">
     <g id="line2d_1">
      <path d="M 51.431554 246.121875 
L 51.431554 25.789375 
" clip-path="url(#pbbcefc14f6)" style="fill: none; stroke-dasharray: 2.96,1.28; stroke-dashoffset: 0; stroke: #cccccc; stroke-opacity: 0.5; stroke-width: 0.8"/>
     </g>
     <g id="line2d_2"/>
     <g id="text_1">
      <!-- $\mathdefault{10^{0}}$ -->
      <g style="fill: #262626" transform="translate(45.151554 257.871875) scale(0.08 -0.08)">
       <defs>
        <path id="ArialMT-31" d="M 2384 0 
L 1822 0 
L 1822 3584 
Q 1619 3391 1289 3197 
Q 959 3003 697 2906 
L 697 3450 
Q 1169 3672 1522 3987 
Q 1875 4303 2022 4600 
L 2384 4600 
L 2384 0 
z
" transform="scale(0.015625)"/>
        <path id="ArialMT-30" d="M 266 2259 
Q 266 3072 433 3567 
Q 600 4063 929 4331 
Q 1259 4600 1759 4600 
Q 2128 4600 2406 4451 
Q 2684 4303 2865 4023 
Q 3047 3744 3150 3342 
Q 3253 2941 3253 2259 
Q 3253 1453 3087 958 
Q 2922 463 2592 192 
Q 2263 -78 1759 -78 
Q 1097 -78 719 397 
Q 266 969 266 2259 
z
M 844 2259 
Q 844 1131 1108 757 
Q 1372 384 1759 384 
Q 2147 384 2411 759 
Q 2675 1134 2675 2259 
Q 2675 3391 2411 3762 
Q 2147 4134 1753 4134 
Q 1366 4134 1134 3806 
Q 844 3388 844 2259 
z
" transform="scale(0.015625)"/>
       </defs>
       <use xlink:href="#ArialMT-31" transform="translate(0 0.99375)"/>
       <use xlink:href="#ArialMT-30" transform="translate(55.615234 0.99375)"/>
       <use xlink:href="#ArialMT-30" transform="translate(112.972813 70.6875) scale(0.7)"/>
      </g>
     </g>
    </g>
    <g id="xtick_2">
     <g id="line2d_3">
      <path d="M 267.364917 246.121875 
L 267.364917 25.789375 
" clip-path="url(#pbbcefc14f6)" style="fill: none; stroke-dasharray: 2.96,1.28; stroke-dashoffset: 0; stroke: #cccccc; stroke-opacity: 0.5; stroke-width: 0.8"/>
     </g>
     <g id="line2d_4"/>
     <g id="text_2">
      <!-- $\mathdefault{10^{1}}$ -->
      <g style="fill: #262626" transform="translate(261.084917 257.871875) scale(0.08 -0.08)">
       <use xlink:href="#ArialMT-31" transform="translate(0 0.99375)"/>
       <use xlink:href="#ArialMT-30" transform="translate(55.615234 0.99375)"/>
       <use xlink:href="#ArialMT-31" transform="translate(112.972813 70.6875) scale(0.7)"/>
      </g>
     </g>
    </g>
    <g id="xtick_3">
     <g id="line2d_5">
      <path d="M 483.298281 246.121875 
L 483.298281 25.789375 
" clip-path="url(#pbbcefc14f6)" style="fill: none; stroke-dasharray: 2.96,1.28; stroke-dashoffset: 0; stroke: #cccccc; stroke-opacity: 0.5; stroke-width: 0.8"/>
     </g>
     <g id="line2d_6"/>
     <g id="text_3">
      <!-- $\mathdefault{10^{2}}$ -->
      <g style="fill: #262626" transform="translate(477.018281 257.871875) scale(0.08 -0.08)">
       <defs>
        <path id="ArialMT-32" d="M 3222 541 
L 3222 0 
L 194 0 
Q 188 203 259 391 
Q 375 700 629 1000 
Q 884 1300 1366 1694 
Q 2113 2306 2375 2664 
Q 2638 3022 2638 3341 
Q 2638 3675 2398 3904 
Q 2159 4134 1775 4134 
Q 1369 4134 1125 3890 
Q 881 3647 878 3216 
L 300 3275 
Q 359 3922 746 4261 
Q 1134 4600 1788 4600 
Q 2447 4600 2831 4234 
Q 3216 3869 3216 3328 
Q 3216 3053 3103 2787 
Q 2991 2522 2730 2228 
Q 2469 1934 1863 1422 
Q 1356 997 1212 845 
Q 1069 694 975 541 
L 3222 541 
z
" transform="scale(0.015625)"/>
       </defs>
       <use xlink:href="#ArialMT-31" transform="translate(0 0.99375)"/>
       <use xlink:href="#ArialMT-30" transform="translate(55.615234 0.99375)"/>
       <use xlink:href="#ArialMT-32" transform="translate(112.972813 70.6875) scale(0.7)"/>
      </g>
     </g>
    </g>
    <g id="xtick_4">
     <g id="line2d_7"/>
    </g>
    <g id="xtick_5">
     <g id="line2d_8"/>
    </g>
    <g id="xtick_6">
     <g id="line2d_9"/>
    </g>
    <g id="xtick_7">
     <g id="line2d_10"/>
    </g>
    <g id="xtick_8">
     <g id="line2d_11"/>
    </g>
    <g id="xtick_9">
     <g id="line2d_12"/>
    </g>
    <g id="xtick_10">
     <g id="line2d_13"/>
    </g>
    <g id="xtick_11">
     <g id="line2d_14"/>
    </g>
    <g id="xtick_12">
     <g id="line2d_15"/>
    </g>
    <g id="xtick_13">
     <g id="line2d_16"/>
    </g>
    <g id="xtick_14">
     <g id="line2d_17"/>
    </g>
    <g id="xtick_15">
     <g id="line2d_18"/>
    </g>
    <g id="xtick_16">
     <g id="line2d_19"/>
    </g>
    <g id="xtick_17">
     <g id="line2d_20"/>
    </g>
    <g id="xtick_18">
     <g id="line2d_21"/>
    </g>
    <g id="xtick_19">
     <g id="line2d_22"/>
    </g>
    <g id="xtick_20">
     <g id="line2d_23"/>
    </g>
    <g id="text_4">
     <!-- Inference Time (ms) -->
     <g style="fill: #262626" transform="translate(217.278714 270.741563) scale(0.1 -0.1)">
      <defs>
       <path id="ArialMT-49" d="M 597 0 
L 597 4581 
L 1203 4581 
L 1203 0 
L 597 0 
z
" transform="scale(0.015625)"/>
       <path id="ArialMT-6e" d="M 422 0 
L 422 3319 
L 928 3319 
L 928 2847 
Q 1294 3394 1984 3394 
Q 2284 3394 2536 3286 
Q 2788 3178 2913 3003 
Q 3038 2828 3088 2588 
Q 3119 2431 3119 2041 
L 3119 0 
L 2556 0 
L 2556 2019 
Q 2556 2363 2490 2533 
Q 2425 2703 2258 2804 
Q 2091 2906 1866 2906 
Q 1506 2906 1245 2678 
Q 984 2450 984 1813 
L 984 0 
L 422 0 
z
" transform="scale(0.015625)"/>
       <path id="ArialMT-66" d="M 556 0 
L 556 2881 
L 59 2881 
L 59 3319 
L 556 3319 
L 556 3672 
Q 556 4006 616 4169 
Q 697 4388 901 4523 
Q 1106 4659 1475 4659 
Q 1713 4659 2000 4603 
L 1916 4113 
Q 1741 4144 1584 4144 
Q 1328 4144 1222 4034 
Q 1116 3925 1116 3625 
L 1116 3319 
L 1763 3319 
L 1763 2881 
L 1116 2881 
L 1116 0 
L 556 0 
z
" transform="scale(0.015625)"/>
       <path id="ArialMT-65" d="M 2694 1069 
L 3275 997 
Q 3138 488 2766 206 
Q 2394 -75 1816 -75 
Q 1088 -75 661 373 
Q 234 822 234 1631 
Q 234 2469 665 2931 
Q 1097 3394 1784 3394 
Q 2450 3394 2872 2941 
Q 3294 2488 3294 1666 
Q 3294 1616 3291 1516 
L 816 1516 
Q 847 969 1125 678 
Q 1403 388 1819 388 
Q 2128 388 2347 550 
Q 2566 713 2694 1069 
z
M 847 1978 
L 2700 1978 
Q 2663 2397 2488 2606 
Q 2219 2931 1791 2931 
Q 1403 2931 1139 2672 
Q 875 2413 847 1978 
z
" transform="scale(0.015625)"/>
       <path id="ArialMT-72" d="M 416 0 
L 416 3319 
L 922 3319 
L 922 2816 
Q 1116 3169 1280 3281 
Q 1444 3394 1641 3394 
Q 1925 3394 2219 3213 
L 2025 2691 
Q 1819 2813 1613 2813 
Q 1428 2813 1281 2702 
Q 1134 2591 1072 2394 
Q 978 2094 978 1738 
L 978 0 
L 416 0 
z
" transform="scale(0.015625)"/>
       <path id="ArialMT-63" d="M 2588 1216 
L 3141 1144 
Q 3050 572 2676 248 
Q 2303 -75 1759 -75 
Q 1078 -75 664 370 
Q 250 816 250 1647 
Q 250 2184 428 2587 
Q 606 2991 970 3192 
Q 1334 3394 1763 3394 
Q 2303 3394 2647 3120 
Q 2991 2847 3088 2344 
L 2541 2259 
Q 2463 2594 2264 2762 
Q 2066 2931 1784 2931 
Q 1359 2931 1093 2626 
Q 828 2322 828 1663 
Q 828 994 1084 691 
Q 1341 388 1753 388 
Q 2084 388 2306 591 
Q 2528 794 2588 1216 
z
" transform="scale(0.015625)"/>
       <path id="ArialMT-20" transform="scale(0.015625)"/>
       <path id="ArialMT-54" d="M 1659 0 
L 1659 4041 
L 150 4041 
L 150 4581 
L 3781 4581 
L 3781 4041 
L 2266 4041 
L 2266 0 
L 1659 0 
z
" transform="scale(0.015625)"/>
       <path id="ArialMT-69" d="M 425 3934 
L 425 4581 
L 988 4581 
L 988 3934 
L 425 3934 
z
M 425 0 
L 425 3319 
L 988 3319 
L 988 0 
L 425 0 
z
" transform="scale(0.015625)"/>
       <path id="ArialMT-6d" d="M 422 0 
L 422 3319 
L 925 3319 
L 925 2853 
Q 1081 3097 1340 3245 
Q 1600 3394 1931 3394 
Q 2300 3394 2536 3241 
Q 2772 3088 2869 2813 
Q 3263 3394 3894 3394 
Q 4388 3394 4653 3120 
Q 4919 2847 4919 2278 
L 4919 0 
L 4359 0 
L 4359 2091 
Q 4359 2428 4304 2576 
Q 4250 2725 4106 2815 
Q 3963 2906 3769 2906 
Q 3419 2906 3187 2673 
Q 2956 2441 2956 1928 
L 2956 0 
L 2394 0 
L 2394 2156 
Q 2394 2531 2256 2718 
Q 2119 2906 1806 2906 
Q 1569 2906 1367 2781 
Q 1166 2656 1075 2415 
Q 984 2175 984 1722 
L 984 0 
L 422 0 
z
" transform="scale(0.015625)"/>
       <path id="ArialMT-28" d="M 1497 -1347 
Q 1031 -759 709 28 
Q 388 816 388 1659 
Q 388 2403 628 3084 
Q 909 3875 1497 4659 
L 1900 4659 
Q 1522 4009 1400 3731 
Q 1209 3300 1100 2831 
Q 966 2247 966 1656 
Q 966 153 1900 -1347 
L 1497 -1347 
z
" transform="scale(0.015625)"/>
       <path id="ArialMT-73" d="M 197 991 
L 753 1078 
Q 800 744 1014 566 
Q 1228 388 1613 388 
Q 2000 388 2187 545 
Q 2375 703 2375 916 
Q 2375 1106 2209 1216 
Q 2094 1291 1634 1406 
Q 1016 1563 777 1677 
Q 538 1791 414 1992 
Q 291 2194 291 2438 
Q 291 2659 392 2848 
Q 494 3038 669 3163 
Q 800 3259 1026 3326 
Q 1253 3394 1513 3394 
Q 1903 3394 2198 3281 
Q 2494 3169 2634 2976 
Q 2775 2784 2828 2463 
L 2278 2388 
Q 2241 2644 2061 2787 
Q 1881 2931 1553 2931 
Q 1166 2931 1000 2803 
Q 834 2675 834 2503 
Q 834 2394 903 2306 
Q 972 2216 1119 2156 
Q 1203 2125 1616 2013 
Q 2213 1853 2448 1751 
Q 2684 1650 2818 1456 
Q 2953 1263 2953 975 
Q 2953 694 2789 445 
Q 2625 197 2315 61 
Q 2006 -75 1616 -75 
Q 969 -75 630 194 
Q 291 463 197 991 
z
" transform="scale(0.015625)"/>
       <path id="ArialMT-29" d="M 791 -1347 
L 388 -1347 
Q 1322 153 1322 1656 
Q 1322 2244 1188 2822 
Q 1081 3291 891 3722 
Q 769 4003 388 4659 
L 791 4659 
Q 1378 3875 1659 3084 
Q 1900 2403 1900 1659 
Q 1900 816 1576 28 
Q 1253 -759 791 -1347 
z
" transform="scale(0.015625)"/>
      </defs>
      <use xlink:href="#ArialMT-49"/>
      <use xlink:href="#ArialMT-6e" transform="translate(27.783203 0)"/>
      <use xlink:href="#ArialMT-66" transform="translate(83.398438 0)"/>
      <use xlink:href="#ArialMT-65" transform="translate(111.181641 0)"/>
      <use xlink:href="#ArialMT-72" transform="translate(166.796875 0)"/>
      <use xlink:href="#ArialMT-65" transform="translate(200.097656 0)"/>
      <use xlink:href="#ArialMT-6e" transform="translate(255.712891 0)"/>
      <use xlink:href="#ArialMT-63" transform="translate(311.328125 0)"/>
      <use xlink:href="#ArialMT-65" transform="translate(361.328125 0)"/>
      <use xlink:href="#ArialMT-20" transform="translate(416.943359 0)"/>
      <use xlink:href="#ArialMT-54" transform="translate(442.976562 0)"/>
      <use xlink:href="#ArialMT-69" transform="translate(500.310547 0)"/>
      <use xlink:href="#ArialMT-6d" transform="translate(522.527344 0)"/>
      <use xlink:href="#ArialMT-65" transform="translate(605.828125 0)"/>
      <use xlink:href="#ArialMT-20" transform="translate(661.443359 0)"/>
      <use xlink:href="#ArialMT-28" transform="translate(689.226562 0)"/>
      <use xlink:href="#ArialMT-6d" transform="translate(722.527344 0)"/>
      <use xlink:href="#ArialMT-73" transform="translate(805.828125 0)"/>
      <use xlink:href="#ArialMT-29" transform="translate(855.828125 0)"/>
     </g>
    </g>
   </g>
   <g id="matplotlib.axis_2">
    <g id="ytick_1">
     <g id="line2d_24">
      <path d="M 39.414063 232.999261 
L 484.049615 232.999261 
" clip-path="url(#pbbcefc14f6)" style="fill: none; stroke-dasharray: 2.96,1.28; stroke-dashoffset: 0; stroke: #cccccc; stroke-opacity: 0.5; stroke-width: 0.8"/>
     </g>
     <g id="line2d_25"/>
     <g id="text_5">
      <!-- 0.80 -->
      <g style="fill: #262626" transform="translate(20.345313 235.862386) scale(0.08 -0.08)">
       <defs>
        <path id="ArialMT-2e" d="M 581 0 
L 581 641 
L 1222 641 
L 1222 0 
L 581 0 
z
" transform="scale(0.015625)"/>
        <path id="ArialMT-38" d="M 1131 2484 
Q 781 2613 612 2850 
Q 444 3088 444 3419 
Q 444 3919 803 4259 
Q 1163 4600 1759 4600 
Q 2359 4600 2725 4251 
Q 3091 3903 3091 3403 
Q 3091 3084 2923 2848 
Q 2756 2613 2416 2484 
Q 2838 2347 3058 2040 
Q 3278 1734 3278 1309 
Q 3278 722 2862 322 
Q 2447 -78 1769 -78 
Q 1091 -78 675 323 
Q 259 725 259 1325 
Q 259 1772 486 2073 
Q 713 2375 1131 2484 
z
M 1019 3438 
Q 1019 3113 1228 2906 
Q 1438 2700 1772 2700 
Q 2097 2700 2305 2904 
Q 2513 3109 2513 3406 
Q 2513 3716 2298 3927 
Q 2084 4138 1766 4138 
Q 1444 4138 1231 3931 
Q 1019 3725 1019 3438 
z
M 838 1322 
Q 838 1081 952 856 
Q 1066 631 1291 507 
Q 1516 384 1775 384 
Q 2178 384 2440 643 
Q 2703 903 2703 1303 
Q 2703 1709 2433 1975 
Q 2163 2241 1756 2241 
Q 1359 2241 1098 1978 
Q 838 1716 838 1322 
z
" transform="scale(0.015625)"/>
       </defs>
       <use xlink:href="#ArialMT-30"/>
       <use xlink:href="#ArialMT-2e" transform="translate(55.615234 0)"/>
       <use xlink:href="#ArialMT-38" transform="translate(83.398438 0)"/>
       <use xlink:href="#ArialMT-30" transform="translate(139.013672 0)"/>
      </g>
     </g>
    </g>
    <g id="ytick_2">
     <g id="line2d_26">
      <path d="M 39.414063 201.341457 
L 484.049615 201.341457 
" clip-path="url(#pbbcefc14f6)" style="fill: none; stroke-dasharray: 2.96,1.28; stroke-dashoffset: 0; stroke: #cccccc; stroke-opacity: 0.5; stroke-width: 0.8"/>
     </g>
     <g id="line2d_27"/>
     <g id="text_6">
      <!-- 0.85 -->
      <g style="fill: #262626" transform="translate(20.345313 204.204582) scale(0.08 -0.08)">
       <defs>
        <path id="ArialMT-35" d="M 266 1200 
L 856 1250 
Q 922 819 1161 601 
Q 1400 384 1738 384 
Q 2144 384 2425 690 
Q 2706 997 2706 1503 
Q 2706 1984 2436 2262 
Q 2166 2541 1728 2541 
Q 1456 2541 1237 2417 
Q 1019 2294 894 2097 
L 366 2166 
L 809 4519 
L 3088 4519 
L 3088 3981 
L 1259 3981 
L 1013 2750 
Q 1425 3038 1878 3038 
Q 2478 3038 2890 2622 
Q 3303 2206 3303 1553 
Q 3303 931 2941 478 
Q 2500 -78 1738 -78 
Q 1113 -78 717 272 
Q 322 622 266 1200 
z
" transform="scale(0.015625)"/>
       </defs>
       <use xlink:href="#ArialMT-30"/>
       <use xlink:href="#ArialMT-2e" transform="translate(55.615234 0)"/>
       <use xlink:href="#ArialMT-38" transform="translate(83.398438 0)"/>
       <use xlink:href="#ArialMT-35" transform="translate(139.013672 0)"/>
      </g>
     </g>
    </g>
    <g id="ytick_3">
     <g id="line2d_28">
      <path d="M 39.414063 169.683653 
L 484.049615 169.683653 
" clip-path="url(#pbbcefc14f6)" style="fill: none; stroke-dasharray: 2.96,1.28; stroke-dashoffset: 0; stroke: #cccccc; stroke-opacity: 0.5; stroke-width: 0.8"/>
     </g>
     <g id="line2d_29"/>
     <g id="text_7">
      <!-- 0.90 -->
      <g style="fill: #262626" transform="translate(20.345313 172.546778) scale(0.08 -0.08)">
       <defs>
        <path id="ArialMT-39" d="M 350 1059 
L 891 1109 
Q 959 728 1153 556 
Q 1347 384 1650 384 
Q 1909 384 2104 503 
Q 2300 622 2425 820 
Q 2550 1019 2634 1356 
Q 2719 1694 2719 2044 
Q 2719 2081 2716 2156 
Q 2547 1888 2255 1720 
Q 1963 1553 1622 1553 
Q 1053 1553 659 1965 
Q 266 2378 266 3053 
Q 266 3750 677 4175 
Q 1088 4600 1706 4600 
Q 2153 4600 2523 4359 
Q 2894 4119 3086 3673 
Q 3278 3228 3278 2384 
Q 3278 1506 3087 986 
Q 2897 466 2520 194 
Q 2144 -78 1638 -78 
Q 1100 -78 759 220 
Q 419 519 350 1059 
z
M 2653 3081 
Q 2653 3566 2395 3850 
Q 2138 4134 1775 4134 
Q 1400 4134 1122 3828 
Q 844 3522 844 3034 
Q 844 2597 1108 2323 
Q 1372 2050 1759 2050 
Q 2150 2050 2401 2323 
Q 2653 2597 2653 3081 
z
" transform="scale(0.015625)"/>
       </defs>
       <use xlink:href="#ArialMT-30"/>
       <use xlink:href="#ArialMT-2e" transform="translate(55.615234 0)"/>
       <use xlink:href="#ArialMT-39" transform="translate(83.398438 0)"/>
       <use xlink:href="#ArialMT-30" transform="translate(139.013672 0)"/>
      </g>
     </g>
    </g>
    <g id="ytick_4">
     <g id="line2d_30">
      <path d="M 39.414063 138.025849 
L 484.049615 138.025849 
" clip-path="url(#pbbcefc14f6)" style="fill: none; stroke-dasharray: 2.96,1.28; stroke-dashoffset: 0; stroke: #cccccc; stroke-opacity: 0.5; stroke-width: 0.8"/>
     </g>
     <g id="line2d_31"/>
     <g id="text_8">
      <!-- 0.95 -->
      <g style="fill: #262626" transform="translate(20.345313 140.888974) scale(0.08 -0.08)">
       <use xlink:href="#ArialMT-30"/>
       <use xlink:href="#ArialMT-2e" transform="translate(55.615234 0)"/>
       <use xlink:href="#ArialMT-39" transform="translate(83.398438 0)"/>
       <use xlink:href="#ArialMT-35" transform="translate(139.013672 0)"/>
      </g>
     </g>
    </g>
    <g id="ytick_5">
     <g id="line2d_32">
      <path d="M 39.414063 106.368045 
L 484.049615 106.368045 
" clip-path="url(#pbbcefc14f6)" style="fill: none; stroke-dasharray: 2.96,1.28; stroke-dashoffset: 0; stroke: #cccccc; stroke-opacity: 0.5; stroke-width: 0.8"/>
     </g>
     <g id="line2d_33"/>
     <g id="text_9">
      <!-- 1.00 -->
      <g style="fill: #262626" transform="translate(20.345313 109.23117) scale(0.08 -0.08)">
       <use xlink:href="#ArialMT-31"/>
       <use xlink:href="#ArialMT-2e" transform="translate(55.615234 0)"/>
       <use xlink:href="#ArialMT-30" transform="translate(83.398438 0)"/>
       <use xlink:href="#ArialMT-30" transform="translate(139.013672 0)"/>
      </g>
     </g>
    </g>
    <g id="ytick_6">
     <g id="line2d_34">
      <path d="M 39.414063 74.710242 
L 484.049615 74.710242 
" clip-path="url(#pbbcefc14f6)" style="fill: none; stroke-dasharray: 2.96,1.28; stroke-dashoffset: 0; stroke: #cccccc; stroke-opacity: 0.5; stroke-width: 0.8"/>
     </g>
     <g id="line2d_35"/>
     <g id="text_10">
      <!-- 1.05 -->
      <g style="fill: #262626" transform="translate(20.345313 77.573367) scale(0.08 -0.08)">
       <use xlink:href="#ArialMT-31"/>
       <use xlink:href="#ArialMT-2e" transform="translate(55.615234 0)"/>
       <use xlink:href="#ArialMT-30" transform="translate(83.398438 0)"/>
       <use xlink:href="#ArialMT-35" transform="translate(139.013672 0)"/>
      </g>
     </g>
    </g>
    <g id="ytick_7">
     <g id="line2d_36">
      <path d="M 39.414063 43.052438 
L 484.049615 43.052438 
" clip-path="url(#pbbcefc14f6)" style="fill: none; stroke-dasharray: 2.96,1.28; stroke-dashoffset: 0; stroke: #cccccc; stroke-opacity: 0.5; stroke-width: 0.8"/>
     </g>
     <g id="line2d_37"/>
     <g id="text_11">
      <!-- 1.10 -->
      <g style="fill: #262626" transform="translate(20.345313 45.915563) scale(0.08 -0.08)">
       <use xlink:href="#ArialMT-31"/>
       <use xlink:href="#ArialMT-2e" transform="translate(55.615234 0)"/>
       <use xlink:href="#ArialMT-31" transform="translate(83.398438 0)"/>
       <use xlink:href="#ArialMT-30" transform="translate(139.013672 0)"/>
      </g>
     </g>
    </g>
    <g id="text_12">
     <!-- Test MSE -->
     <g style="fill: #262626" transform="translate(14.357813 157.347031) rotate(-90) scale(0.1 -0.1)">
      <defs>
       <path id="ArialMT-74" d="M 1650 503 
L 1731 6 
Q 1494 -44 1306 -44 
Q 1000 -44 831 53 
Q 663 150 594 308 
Q 525 466 525 972 
L 525 2881 
L 113 2881 
L 113 3319 
L 525 3319 
L 525 4141 
L 1084 4478 
L 1084 3319 
L 1650 3319 
L 1650 2881 
L 1084 2881 
L 1084 941 
Q 1084 700 1114 631 
Q 1144 563 1211 522 
Q 1278 481 1403 481 
Q 1497 481 1650 503 
z
" transform="scale(0.015625)"/>
       <path id="ArialMT-4d" d="M 475 0 
L 475 4581 
L 1388 4581 
L 2472 1338 
Q 2622 884 2691 659 
Q 2769 909 2934 1394 
L 4031 4581 
L 4847 4581 
L 4847 0 
L 4263 0 
L 4263 3834 
L 2931 0 
L 2384 0 
L 1059 3900 
L 1059 0 
L 475 0 
z
" transform="scale(0.015625)"/>
       <path id="ArialMT-53" d="M 288 1472 
L 859 1522 
Q 900 1178 1048 958 
Q 1197 738 1509 602 
Q 1822 466 2213 466 
Q 2559 466 2825 569 
Q 3091 672 3220 851 
Q 3350 1031 3350 1244 
Q 3350 1459 3225 1620 
Q 3100 1781 2813 1891 
Q 2628 1963 1997 2114 
Q 1366 2266 1113 2400 
Q 784 2572 623 2826 
Q 463 3081 463 3397 
Q 463 3744 659 4045 
Q 856 4347 1234 4503 
Q 1613 4659 2075 4659 
Q 2584 4659 2973 4495 
Q 3363 4331 3572 4012 
Q 3781 3694 3797 3291 
L 3216 3247 
Q 3169 3681 2898 3903 
Q 2628 4125 2100 4125 
Q 1550 4125 1298 3923 
Q 1047 3722 1047 3438 
Q 1047 3191 1225 3031 
Q 1400 2872 2139 2705 
Q 2878 2538 3153 2413 
Q 3553 2228 3743 1945 
Q 3934 1663 3934 1294 
Q 3934 928 3725 604 
Q 3516 281 3123 101 
Q 2731 -78 2241 -78 
Q 1619 -78 1198 103 
Q 778 284 539 648 
Q 300 1013 288 1472 
z
" transform="scale(0.015625)"/>
       <path id="ArialMT-45" d="M 506 0 
L 506 4581 
L 3819 4581 
L 3819 4041 
L 1113 4041 
L 1113 2638 
L 3647 2638 
L 3647 2100 
L 1113 2100 
L 1113 541 
L 3925 541 
L 3925 0 
L 506 0 
z
" transform="scale(0.015625)"/>
      </defs>
      <use xlink:href="#ArialMT-54"/>
      <use xlink:href="#ArialMT-65" transform="translate(49.958984 0)"/>
      <use xlink:href="#ArialMT-73" transform="translate(105.574219 0)"/>
      <use xlink:href="#ArialMT-74" transform="translate(155.574219 0)"/>
      <use xlink:href="#ArialMT-20" transform="translate(183.357422 0)"/>
      <use xlink:href="#ArialMT-4d" transform="translate(211.140625 0)"/>
      <use xlink:href="#ArialMT-53" transform="translate(294.441406 0)"/>
      <use xlink:href="#ArialMT-45" transform="translate(361.140625 0)"/>
     </g>
    </g>
   </g>
   <g id="PathCollection_1">
    <defs>
     <path id="m3bca67bedd" d="M 0 2.236068 
C 0.593012 2.236068 1.161816 2.000462 1.581139 1.581139 
C 2.000462 1.161816 2.236068 0.593012 2.236068 0 
C 2.236068 -0.593012 2.000462 -1.161816 1.581139 -1.581139 
C 1.161816 -2.000462 0.593012 -2.236068 0 -2.236068 
C -0.593012 -2.236068 -1.161816 -2.000462 -1.581139 -1.581139 
C -2.000462 -1.161816 -2.236068 -0.593012 -2.236068 0 
C -2.236068 0.593012 -2.000462 1.161816 -1.581139 1.581139 
C -1.161816 2.000462 -0.593012 2.236068 0 2.236068 
z
" style="stroke: #808080; stroke-opacity: 0.3"/>
    </defs>
    <g clip-path="url(#pbbcefc14f6)">
     <use xlink:href="#m3bca67bedd" x="113.5109" y="85.537679" style="fill: #808080; fill-opacity: 0.3; stroke: #808080; stroke-opacity: 0.3"/>
     <use xlink:href="#m3bca67bedd" x="198.15804" y="167.170361" style="fill: #808080; fill-opacity: 0.3; stroke: #808080; stroke-opacity: 0.3"/>
     <use xlink:href="#m3bca67bedd" x="126.637905" y="177.410964" style="fill: #808080; fill-opacity: 0.3; stroke: #808080; stroke-opacity: 0.3"/>
     <use xlink:href="#m3bca67bedd" x="107.232339" y="92.392146" style="fill: #808080; fill-opacity: 0.3; stroke: #808080; stroke-opacity: 0.3"/>
     <use xlink:href="#m3bca67bedd" x="158.510416" y="133.142047" style="fill: #808080; fill-opacity: 0.3; stroke: #808080; stroke-opacity: 0.3"/>
     <use xlink:href="#m3bca67bedd" x="167.232029" y="184.617196" style="fill: #808080; fill-opacity: 0.3; stroke: #808080; stroke-opacity: 0.3"/>
     <use xlink:href="#m3bca67bedd" x="104.198218" y="180.784457" style="fill: #808080; fill-opacity: 0.3; stroke: #808080; stroke-opacity: 0.3"/>
     <use xlink:href="#m3bca67bedd" x="168.016503" y="177.786769" style="fill: #808080; fill-opacity: 0.3; stroke: #808080; stroke-opacity: 0.3"/>
     <use xlink:href="#m3bca67bedd" x="180.933201" y="141.072756" style="fill: #808080; fill-opacity: 0.3; stroke: #808080; stroke-opacity: 0.3"/>
     <use xlink:href="#m3bca67bedd" x="204.382302" y="185.492817" style="fill: #808080; fill-opacity: 0.3; stroke: #808080; stroke-opacity: 0.3"/>
     <use xlink:href="#m3bca67bedd" x="94.371008" y="172.255471" style="fill: #808080; fill-opacity: 0.3; stroke: #808080; stroke-opacity: 0.3"/>
     <use xlink:href="#m3bca67bedd" x="106.551866" y="171.670893" style="fill: #808080; fill-opacity: 0.3; stroke: #808080; stroke-opacity: 0.3"/>
     <use xlink:href="#m3bca67bedd" x="153.954431" y="140.798846" style="fill: #808080; fill-opacity: 0.3; stroke: #808080; stroke-opacity: 0.3"/>
     <use xlink:href="#m3bca67bedd" x="111.269419" y="150.1022" style="fill: #808080; fill-opacity: 0.3; stroke: #808080; stroke-opacity: 0.3"/>
     <use xlink:href="#m3bca67bedd" x="182.704496" y="119.902059" style="fill: #808080; fill-opacity: 0.3; stroke: #808080; stroke-opacity: 0.3"/>
     <use xlink:href="#m3bca67bedd" x="127.403767" y="194.446556" style="fill: #808080; fill-opacity: 0.3; stroke: #808080; stroke-opacity: 0.3"/>
     <use xlink:href="#m3bca67bedd" x="108.288666" y="127.471265" style="fill: #808080; fill-opacity: 0.3; stroke: #808080; stroke-opacity: 0.3"/>
     <use xlink:href="#m3bca67bedd" x="101.22563" y="176.035225" style="fill: #808080; fill-opacity: 0.3; stroke: #808080; stroke-opacity: 0.3"/>
     <use xlink:href="#m3bca67bedd" x="88.523655" y="134.106431" style="fill: #808080; fill-opacity: 0.3; stroke: #808080; stroke-opacity: 0.3"/>
     <use xlink:href="#m3bca67bedd" x="155.021969" y="200.8691" style="fill: #808080; fill-opacity: 0.3; stroke: #808080; stroke-opacity: 0.3"/>
     <use xlink:href="#m3bca67bedd" x="145.079153" y="168.259585" style="fill: #808080; fill-opacity: 0.3; stroke: #808080; stroke-opacity: 0.3"/>
     <use xlink:href="#m3bca67bedd" x="127.170864" y="127.883451" style="fill: #808080; fill-opacity: 0.3; stroke: #808080; stroke-opacity: 0.3"/>
     <use xlink:href="#m3bca67bedd" x="106.405354" y="168.685055" style="fill: #808080; fill-opacity: 0.3; stroke: #808080; stroke-opacity: 0.3"/>
     <use xlink:href="#m3bca67bedd" x="110.392145" y="180.535756" style="fill: #808080; fill-opacity: 0.3; stroke: #808080; stroke-opacity: 0.3"/>
     <use xlink:href="#m3bca67bedd" x="158.748252" y="35.804489" style="fill: #808080; fill-opacity: 0.3; stroke: #808080; stroke-opacity: 0.3"/>
     <use xlink:href="#m3bca67bedd" x="147.358171" y="166.528571" style="fill: #808080; fill-opacity: 0.3; stroke: #808080; stroke-opacity: 0.3"/>
     <use xlink:href="#m3bca67bedd" x="115.140224" y="135.376199" style="fill: #808080; fill-opacity: 0.3; stroke: #808080; stroke-opacity: 0.3"/>
     <use xlink:href="#m3bca67bedd" x="74.220923" y="85.82208" style="fill: #808080; fill-opacity: 0.3; stroke: #808080; stroke-opacity: 0.3"/>
     <use xlink:href="#m3bca67bedd" x="105.794153" y="172.962889" style="fill: #808080; fill-opacity: 0.3; stroke: #808080; stroke-opacity: 0.3"/>
     <use xlink:href="#m3bca67bedd" x="76.427359" y="171.924462" style="fill: #808080; fill-opacity: 0.3; stroke: #808080; stroke-opacity: 0.3"/>
     <use xlink:href="#m3bca67bedd" x="182.232171" y="176.696601" style="fill: #808080; fill-opacity: 0.3; stroke: #808080; stroke-opacity: 0.3"/>
     <use xlink:href="#m3bca67bedd" x="94.76356" y="154.079555" style="fill: #808080; fill-opacity: 0.3; stroke: #808080; stroke-opacity: 0.3"/>
     <use xlink:href="#m3bca67bedd" x="142.856937" y="182.290395" style="fill: #808080; fill-opacity: 0.3; stroke: #808080; stroke-opacity: 0.3"/>
     <use xlink:href="#m3bca67bedd" x="80.439773" y="136.459422" style="fill: #808080; fill-opacity: 0.3; stroke: #808080; stroke-opacity: 0.3"/>
     <use xlink:href="#m3bca67bedd" x="103.628334" y="139.349252" style="fill: #808080; fill-opacity: 0.3; stroke: #808080; stroke-opacity: 0.3"/>
     <use xlink:href="#m3bca67bedd" x="154.231263" y="66.873684" style="fill: #808080; fill-opacity: 0.3; stroke: #808080; stroke-opacity: 0.3"/>
     <use xlink:href="#m3bca67bedd" x="115.531334" y="160.955835" style="fill: #808080; fill-opacity: 0.3; stroke: #808080; stroke-opacity: 0.3"/>
     <use xlink:href="#m3bca67bedd" x="63.714768" y="50.063733" style="fill: #808080; fill-opacity: 0.3; stroke: #808080; stroke-opacity: 0.3"/>
     <use xlink:href="#m3bca67bedd" x="138.797204" y="199.630693" style="fill: #808080; fill-opacity: 0.3; stroke: #808080; stroke-opacity: 0.3"/>
     <use xlink:href="#m3bca67bedd" x="124.948842" y="155.362796" style="fill: #808080; fill-opacity: 0.3; stroke: #808080; stroke-opacity: 0.3"/>
     <use xlink:href="#m3bca67bedd" x="158.234562" y="57.02236" style="fill: #808080; fill-opacity: 0.3; stroke: #808080; stroke-opacity: 0.3"/>
     <use xlink:href="#m3bca67bedd" x="142.249105" y="107.849718" style="fill: #808080; fill-opacity: 0.3; stroke: #808080; stroke-opacity: 0.3"/>
     <use xlink:href="#m3bca67bedd" x="121.290073" y="156.241663" style="fill: #808080; fill-opacity: 0.3; stroke: #808080; stroke-opacity: 0.3"/>
     <use xlink:href="#m3bca67bedd" x="105.91298" y="139.519191" style="fill: #808080; fill-opacity: 0.3; stroke: #808080; stroke-opacity: 0.3"/>
     <use xlink:href="#m3bca67bedd" x="184.069503" y="203.385917" style="fill: #808080; fill-opacity: 0.3; stroke: #808080; stroke-opacity: 0.3"/>
     <use xlink:href="#m3bca67bedd" x="157.926792" y="145.167744" style="fill: #808080; fill-opacity: 0.3; stroke: #808080; stroke-opacity: 0.3"/>
    </g>
   </g>
   <g id="PathCollection_2">
    <defs>
     <path id="C0_0_22895c18fe" d="M 0 3.535534 
C 0.937635 3.535534 1.836992 3.163008 2.5 2.5 
C 3.163008 1.836992 3.535534 0.937635 3.535534 -0 
C 3.535534 -0.937635 3.163008 -1.836992 2.5 -2.5 
C 1.836992 -3.163008 0.937635 -3.535534 0 -3.535534 
C -0.937635 -3.535534 -1.836992 -3.163008 -2.5 -2.5 
C -3.163008 -1.836992 -3.535534 -0.937635 -3.535534 0 
C -3.535534 0.937635 -3.163008 1.836992 -2.5 2.5 
C -1.836992 3.163008 -0.937635 3.535534 0 3.535534 
z
"/>
    </defs>
    <g clip-path="url(#pbbcefc14f6)">
     <use xlink:href="#C0_0_22895c18fe" x="59.624769" y="77.305888" style="fill: #1f77b4"/>
    </g>
    <g clip-path="url(#pbbcefc14f6)">
     <use xlink:href="#C0_0_22895c18fe" x="62.636483" y="173.435722" style="fill: #1f77b4"/>
    </g>
    <g clip-path="url(#pbbcefc14f6)">
     <use xlink:href="#C0_0_22895c18fe" x="89.699338" y="187.52382" style="fill: #1f77b4"/>
    </g>
    <g clip-path="url(#pbbcefc14f6)">
     <use xlink:href="#C0_0_22895c18fe" x="93.909209" y="236.106761" style="fill: #1f77b4"/>
    </g>
   </g>
   <g id="PathCollection_3">
    <defs>
     <path id="me36c9483a3" d="M 0 -7.071068 
L -1.587554 -2.18508 
L -6.724985 -2.18508 
L -2.568716 0.834626 
L -4.156269 5.720614 
L -0 2.700907 
L 4.156269 5.720614 
L 2.568716 0.834626 
L 6.724985 -2.18508 
L 1.587554 -2.18508 
z
" style="stroke: #000000; stroke-width: 0.5"/>
    </defs>
    <g clip-path="url(#pbbcefc14f6)">
     <use xlink:href="#me36c9483a3" x="463.838908" y="45.280309" style="fill: #ff0000; stroke: #000000; stroke-width: 0.5"/>
    </g>
   </g>
   <g id="line2d_38">
    <path d="M 59.624769 77.305888 
L 62.636483 173.435722 
L 89.699338 187.52382 
L 93.909209 236.106761 
" clip-path="url(#pbbcefc14f6)" style="fill: none; stroke: #1f77b4; stroke-width: 1.5; stroke-linecap: round"/>
   </g>
   <g id="patch_3">
    <path d="M 39.414063 246.121875 
L 39.414063 25.789375 
" style="fill: none; stroke: #cccccc; stroke-linejoin: miter; stroke-linecap: square"/>
   </g>
   <g id="patch_4">
    <path d="M 484.049615 246.121875 
L 484.049615 25.789375 
" style="fill: none; stroke: #cccccc; stroke-linejoin: miter; stroke-linecap: square"/>
   </g>
   <g id="patch_5">
    <path d="M 39.414063 246.121875 
L 484.049615 246.121875 
" style="fill: none; stroke: #cccccc; stroke-linejoin: miter; stroke-linecap: square"/>
   </g>
   <g id="patch_6">
    <path d="M 39.414063 25.789375 
L 484.049615 25.789375 
" style="fill: none; stroke: #cccccc; stroke-linejoin: miter; stroke-linecap: square"/>
   </g>
   <g id="text_13">
    <!-- Pareto Frontier: Inference Time vs. Test MSE -->
    <g style="fill: #262626" transform="translate(142.135901 15.789375) scale(0.12 -0.12)">
     <defs>
      <path id="ArialMT-50" d="M 494 0 
L 494 4581 
L 2222 4581 
Q 2678 4581 2919 4538 
Q 3256 4481 3484 4323 
Q 3713 4166 3852 3881 
Q 3991 3597 3991 3256 
Q 3991 2672 3619 2267 
Q 3247 1863 2275 1863 
L 1100 1863 
L 1100 0 
L 494 0 
z
M 1100 2403 
L 2284 2403 
Q 2872 2403 3119 2622 
Q 3366 2841 3366 3238 
Q 3366 3525 3220 3729 
Q 3075 3934 2838 4000 
Q 2684 4041 2272 4041 
L 1100 4041 
L 1100 2403 
z
" transform="scale(0.015625)"/>
      <path id="ArialMT-61" d="M 2588 409 
Q 2275 144 1986 34 
Q 1697 -75 1366 -75 
Q 819 -75 525 192 
Q 231 459 231 875 
Q 231 1119 342 1320 
Q 453 1522 633 1644 
Q 813 1766 1038 1828 
Q 1203 1872 1538 1913 
Q 2219 1994 2541 2106 
Q 2544 2222 2544 2253 
Q 2544 2597 2384 2738 
Q 2169 2928 1744 2928 
Q 1347 2928 1158 2789 
Q 969 2650 878 2297 
L 328 2372 
Q 403 2725 575 2942 
Q 747 3159 1072 3276 
Q 1397 3394 1825 3394 
Q 2250 3394 2515 3294 
Q 2781 3194 2906 3042 
Q 3031 2891 3081 2659 
Q 3109 2516 3109 2141 
L 3109 1391 
Q 3109 606 3145 398 
Q 3181 191 3288 0 
L 2700 0 
Q 2613 175 2588 409 
z
M 2541 1666 
Q 2234 1541 1622 1453 
Q 1275 1403 1131 1340 
Q 988 1278 909 1158 
Q 831 1038 831 891 
Q 831 666 1001 516 
Q 1172 366 1500 366 
Q 1825 366 2078 508 
Q 2331 650 2450 897 
Q 2541 1088 2541 1459 
L 2541 1666 
z
" transform="scale(0.015625)"/>
      <path id="ArialMT-6f" d="M 213 1659 
Q 213 2581 725 3025 
Q 1153 3394 1769 3394 
Q 2453 3394 2887 2945 
Q 3322 2497 3322 1706 
Q 3322 1066 3130 698 
Q 2938 331 2570 128 
Q 2203 -75 1769 -75 
Q 1072 -75 642 372 
Q 213 819 213 1659 
z
M 791 1659 
Q 791 1022 1069 705 
Q 1347 388 1769 388 
Q 2188 388 2466 706 
Q 2744 1025 2744 1678 
Q 2744 2294 2464 2611 
Q 2184 2928 1769 2928 
Q 1347 2928 1069 2612 
Q 791 2297 791 1659 
z
" transform="scale(0.015625)"/>
      <path id="ArialMT-46" d="M 525 0 
L 525 4581 
L 3616 4581 
L 3616 4041 
L 1131 4041 
L 1131 2622 
L 3281 2622 
L 3281 2081 
L 1131 2081 
L 1131 0 
L 525 0 
z
" transform="scale(0.015625)"/>
      <path id="ArialMT-3a" d="M 578 2678 
L 578 3319 
L 1219 3319 
L 1219 2678 
L 578 2678 
z
M 578 0 
L 578 641 
L 1219 641 
L 1219 0 
L 578 0 
z
" transform="scale(0.015625)"/>
      <path id="ArialMT-76" d="M 1344 0 
L 81 3319 
L 675 3319 
L 1388 1331 
Q 1503 1009 1600 663 
Q 1675 925 1809 1294 
L 2547 3319 
L 3125 3319 
L 1869 0 
L 1344 0 
z
" transform="scale(0.015625)"/>
     </defs>
     <use xlink:href="#ArialMT-50"/>
     <use xlink:href="#ArialMT-61" transform="translate(66.699219 0)"/>
     <use xlink:href="#ArialMT-72" transform="translate(122.314453 0)"/>
     <use xlink:href="#ArialMT-65" transform="translate(155.615234 0)"/>
     <use xlink:href="#ArialMT-74" transform="translate(211.230469 0)"/>
     <use xlink:href="#ArialMT-6f" transform="translate(239.013672 0)"/>
     <use xlink:href="#ArialMT-20" transform="translate(294.628906 0)"/>
     <use xlink:href="#ArialMT-46" transform="translate(322.412109 0)"/>
     <use xlink:href="#ArialMT-72" transform="translate(383.496094 0)"/>
     <use xlink:href="#ArialMT-6f" transform="translate(416.796875 0)"/>
     <use xlink:href="#ArialMT-6e" transform="translate(472.412109 0)"/>
     <use xlink:href="#ArialMT-74" transform="translate(528.027344 0)"/>
     <use xlink:href="#ArialMT-69" transform="translate(555.810547 0)"/>
     <use xlink:href="#ArialMT-65" transform="translate(578.027344 0)"/>
     <use xlink:href="#ArialMT-72" transform="translate(633.642578 0)"/>
     <use xlink:href="#ArialMT-3a" transform="translate(666.943359 0)"/>
     <use xlink:href="#ArialMT-20" transform="translate(694.726562 0)"/>
     <use xlink:href="#ArialMT-49" transform="translate(722.509766 0)"/>
     <use xlink:href="#ArialMT-6e" transform="translate(750.292969 0)"/>
     <use xlink:href="#ArialMT-66" transform="translate(805.908203 0)"/>
     <use xlink:href="#ArialMT-65" transform="translate(833.691406 0)"/>
     <use xlink:href="#ArialMT-72" transform="translate(889.306641 0)"/>
     <use xlink:href="#ArialMT-65" transform="translate(922.607422 0)"/>
     <use xlink:href="#ArialMT-6e" transform="translate(978.222656 0)"/>
     <use xlink:href="#ArialMT-63" transform="translate(1033.837891 0)"/>
     <use xlink:href="#ArialMT-65" transform="translate(1083.837891 0)"/>
     <use xlink:href="#ArialMT-20" transform="translate(1139.453125 0)"/>
     <use xlink:href="#ArialMT-54" transform="translate(1165.486328 0)"/>
     <use xlink:href="#ArialMT-69" transform="translate(1222.820312 0)"/>
     <use xlink:href="#ArialMT-6d" transform="translate(1245.037109 0)"/>
     <use xlink:href="#ArialMT-65" transform="translate(1328.337891 0)"/>
     <use xlink:href="#ArialMT-20" transform="translate(1383.953125 0)"/>
     <use xlink:href="#ArialMT-76" transform="translate(1411.736328 0)"/>
     <use xlink:href="#ArialMT-73" transform="translate(1461.736328 0)"/>
     <use xlink:href="#ArialMT-2e" transform="translate(1511.736328 0)"/>
     <use xlink:href="#ArialMT-20" transform="translate(1539.519531 0)"/>
     <use xlink:href="#ArialMT-54" transform="translate(1565.552734 0)"/>
     <use xlink:href="#ArialMT-65" transform="translate(1615.511719 0)"/>
     <use xlink:href="#ArialMT-73" transform="translate(1671.126953 0)"/>
     <use xlink:href="#ArialMT-74" transform="translate(1721.126953 0)"/>
     <use xlink:href="#ArialMT-20" transform="translate(1748.910156 0)"/>
     <use xlink:href="#ArialMT-4d" transform="translate(1776.693359 0)"/>
     <use xlink:href="#ArialMT-53" transform="translate(1859.994141 0)"/>
     <use xlink:href="#ArialMT-45" transform="translate(1926.693359 0)"/>
    </g>
   </g>
   <g id="legend_1">
    <g id="patch_7">
     <path d="M 45.014063 66.138125 
L 141.750313 66.138125 
Q 143.350313 66.138125 143.350313 64.538125 
L 143.350313 31.389375 
Q 143.350313 29.789375 141.750313 29.789375 
L 45.014063 29.789375 
Q 43.414063 29.789375 43.414063 31.389375 
L 43.414063 64.538125 
Q 43.414063 66.138125 45.014063 66.138125 
z
" style="fill: #ffffff; opacity: 0.8; stroke: #cccccc; stroke-linejoin: miter"/>
    </g>
    <g id="PathCollection_4">
     <g>
      <use xlink:href="#m3bca67bedd" x="54.614063" y="36.615625" style="fill: #808080; fill-opacity: 0.3; stroke: #808080; stroke-opacity: 0.3"/>
     </g>
    </g>
    <g id="text_14">
     <!-- Non-optimal Models -->
     <g style="fill: #262626" transform="translate(69.014063 38.715625) scale(0.08 -0.08)">
      <defs>
       <path id="ArialMT-4e" d="M 488 0 
L 488 4581 
L 1109 4581 
L 3516 984 
L 3516 4581 
L 4097 4581 
L 4097 0 
L 3475 0 
L 1069 3600 
L 1069 0 
L 488 0 
z
" transform="scale(0.015625)"/>
       <path id="ArialMT-2d" d="M 203 1375 
L 203 1941 
L 1931 1941 
L 1931 1375 
L 203 1375 
z
" transform="scale(0.015625)"/>
       <path id="ArialMT-70" d="M 422 -1272 
L 422 3319 
L 934 3319 
L 934 2888 
Q 1116 3141 1344 3267 
Q 1572 3394 1897 3394 
Q 2322 3394 2647 3175 
Q 2972 2956 3137 2557 
Q 3303 2159 3303 1684 
Q 3303 1175 3120 767 
Q 2938 359 2589 142 
Q 2241 -75 1856 -75 
Q 1575 -75 1351 44 
Q 1128 163 984 344 
L 984 -1272 
L 422 -1272 
z
M 931 1641 
Q 931 1000 1190 694 
Q 1450 388 1819 388 
Q 2194 388 2461 705 
Q 2728 1022 2728 1688 
Q 2728 2322 2467 2637 
Q 2206 2953 1844 2953 
Q 1484 2953 1207 2617 
Q 931 2281 931 1641 
z
" transform="scale(0.015625)"/>
       <path id="ArialMT-6c" d="M 409 0 
L 409 4581 
L 972 4581 
L 972 0 
L 409 0 
z
" transform="scale(0.015625)"/>
       <path id="ArialMT-64" d="M 2575 0 
L 2575 419 
Q 2259 -75 1647 -75 
Q 1250 -75 917 144 
Q 584 363 401 755 
Q 219 1147 219 1656 
Q 219 2153 384 2558 
Q 550 2963 881 3178 
Q 1213 3394 1622 3394 
Q 1922 3394 2156 3267 
Q 2391 3141 2538 2938 
L 2538 4581 
L 3097 4581 
L 3097 0 
L 2575 0 
z
M 797 1656 
Q 797 1019 1065 703 
Q 1334 388 1700 388 
Q 2069 388 2326 689 
Q 2584 991 2584 1609 
Q 2584 2291 2321 2609 
Q 2059 2928 1675 2928 
Q 1300 2928 1048 2622 
Q 797 2316 797 1656 
z
" transform="scale(0.015625)"/>
      </defs>
      <use xlink:href="#ArialMT-4e"/>
      <use xlink:href="#ArialMT-6f" transform="translate(72.216797 0)"/>
      <use xlink:href="#ArialMT-6e" transform="translate(127.832031 0)"/>
      <use xlink:href="#ArialMT-2d" transform="translate(183.447266 0)"/>
      <use xlink:href="#ArialMT-6f" transform="translate(216.748047 0)"/>
      <use xlink:href="#ArialMT-70" transform="translate(272.363281 0)"/>
      <use xlink:href="#ArialMT-74" transform="translate(327.978516 0)"/>
      <use xlink:href="#ArialMT-69" transform="translate(355.761719 0)"/>
      <use xlink:href="#ArialMT-6d" transform="translate(377.978516 0)"/>
      <use xlink:href="#ArialMT-61" transform="translate(461.279297 0)"/>
      <use xlink:href="#ArialMT-6c" transform="translate(516.894531 0)"/>
      <use xlink:href="#ArialMT-20" transform="translate(539.111328 0)"/>
      <use xlink:href="#ArialMT-4d" transform="translate(566.894531 0)"/>
      <use xlink:href="#ArialMT-6f" transform="translate(650.195312 0)"/>
      <use xlink:href="#ArialMT-64" transform="translate(705.810547 0)"/>
      <use xlink:href="#ArialMT-65" transform="translate(761.425781 0)"/>
      <use xlink:href="#ArialMT-6c" transform="translate(817.041016 0)"/>
      <use xlink:href="#ArialMT-73" transform="translate(839.257812 0)"/>
     </g>
    </g>
    <g id="PathCollection_5">
     <path d="M 54.614063 51.467409 
C 55.551697 51.467409 56.451055 51.094883 57.114063 50.431875 
C 57.77707 49.768867 58.149596 48.86951 58.149596 47.931875 
C 58.149596 46.99424 57.77707 46.094883 57.114063 45.431875 
C 56.451055 44.768867 55.551697 44.396341 54.614063 44.396341 
C 53.676428 44.396341 52.77707 44.768867 52.114063 45.431875 
C 51.451055 46.094883 51.078529 46.99424 51.078529 47.931875 
C 51.078529 48.86951 51.451055 49.768867 52.114063 50.431875 
C 52.77707 51.094883 53.676428 51.467409 54.614063 51.467409 
z
" style="fill: #1f77b4"/>
    </g>
    <g id="text_15">
     <!-- Pareto Frontier -->
     <g style="fill: #262626" transform="translate(69.014063 50.031875) scale(0.08 -0.08)">
      <use xlink:href="#ArialMT-50"/>
      <use xlink:href="#ArialMT-61" transform="translate(66.699219 0)"/>
      <use xlink:href="#ArialMT-72" transform="translate(122.314453 0)"/>
      <use xlink:href="#ArialMT-65" transform="translate(155.615234 0)"/>
      <use xlink:href="#ArialMT-74" transform="translate(211.230469 0)"/>
      <use xlink:href="#ArialMT-6f" transform="translate(239.013672 0)"/>
      <use xlink:href="#ArialMT-20" transform="translate(294.628906 0)"/>
      <use xlink:href="#ArialMT-46" transform="translate(322.412109 0)"/>
      <use xlink:href="#ArialMT-72" transform="translate(383.496094 0)"/>
      <use xlink:href="#ArialMT-6f" transform="translate(416.796875 0)"/>
      <use xlink:href="#ArialMT-6e" transform="translate(472.412109 0)"/>
      <use xlink:href="#ArialMT-74" transform="translate(528.027344 0)"/>
      <use xlink:href="#ArialMT-69" transform="translate(555.810547 0)"/>
      <use xlink:href="#ArialMT-65" transform="translate(578.027344 0)"/>
      <use xlink:href="#ArialMT-72" transform="translate(633.642578 0)"/>
     </g>
    </g>
    <g id="PathCollection_6">
     <g>
      <use xlink:href="#me36c9483a3" x="54.614063" y="59.248125" style="fill: #ff0000; stroke: #000000; stroke-width: 0.5"/>
     </g>
    </g>
    <g id="text_16">
     <!-- Baseline -->
     <g style="fill: #262626" transform="translate(69.014063 61.348125) scale(0.08 -0.08)">
      <defs>
       <path id="ArialMT-42" d="M 469 0 
L 469 4581 
L 2188 4581 
Q 2713 4581 3030 4442 
Q 3347 4303 3526 4014 
Q 3706 3725 3706 3409 
Q 3706 3116 3547 2856 
Q 3388 2597 3066 2438 
Q 3481 2316 3704 2022 
Q 3928 1728 3928 1328 
Q 3928 1006 3792 729 
Q 3656 453 3456 303 
Q 3256 153 2954 76 
Q 2653 0 2216 0 
L 469 0 
z
M 1075 2656 
L 2066 2656 
Q 2469 2656 2644 2709 
Q 2875 2778 2992 2937 
Q 3109 3097 3109 3338 
Q 3109 3566 3000 3739 
Q 2891 3913 2687 3977 
Q 2484 4041 1991 4041 
L 1075 4041 
L 1075 2656 
z
M 1075 541 
L 2216 541 
Q 2509 541 2628 563 
Q 2838 600 2978 687 
Q 3119 775 3209 942 
Q 3300 1109 3300 1328 
Q 3300 1584 3169 1773 
Q 3038 1963 2805 2039 
Q 2572 2116 2134 2116 
L 1075 2116 
L 1075 541 
z
" transform="scale(0.015625)"/>
      </defs>
      <use xlink:href="#ArialMT-42"/>
      <use xlink:href="#ArialMT-61" transform="translate(66.699219 0)"/>
      <use xlink:href="#ArialMT-73" transform="translate(122.314453 0)"/>
      <use xlink:href="#ArialMT-65" transform="translate(172.314453 0)"/>
      <use xlink:href="#ArialMT-6c" transform="translate(227.929688 0)"/>
      <use xlink:href="#ArialMT-69" transform="translate(250.146484 0)"/>
      <use xlink:href="#ArialMT-6e" transform="translate(272.363281 0)"/>
      <use xlink:href="#ArialMT-65" transform="translate(327.978516 0)"/>
     </g>
    </g>
   </g>
  </g>
 </g>
 <defs>
  <clipPath id="pbbcefc14f6">
   <rect x="39.414063" y="25.789375" width="444.635552" height="220.3325"/>
  </clipPath>
 </defs>
</svg>
